<?xml version="1.0" standalone="no"?>
<!DOCTYPE svg PUBLIC "-//W3C//DTD SVG 20010904//EN"
 "http://www.w3.org/TR/2001/REC-SVG-20010904/DTD/svg10.dtd">
<svg version="1.0" xmlns="http://www.w3.org/2000/svg"
 width="799.000000pt" height="799.000000pt" viewBox="0 0 799.000000 799.000000"
 preserveAspectRatio="xMidYMid meet">
<metadata>
Created by potrace 1.14, written by Peter Selinger 2001-2017
</metadata>
<g transform="translate(0.000000,799.000000) scale(0.100000,-0.100000)"
fill="#000000" stroke="none">
<path d="M3857 5514 c-1 -1 -29 -6 -62 -9 -33 -4 -71 -13 -85 -20 -28 -14
-144 -49 -146 -44 0 2 -7 -1 -15 -8 -8 -6 -31 -12 -51 -13 -63 -2 -78 -4 -78
-10 0 -3 -15 -11 -32 -19 -18 -8 -40 -20 -48 -27 -8 -7 -35 -20 -60 -30 -25
-10 -74 -38 -110 -63 -36 -26 -77 -52 -91 -60 -33 -16 -222 -201 -268 -261
-19 -25 -38 -47 -42 -51 -5 -3 -22 -33 -38 -66 -17 -34 -35 -64 -40 -68 -6 -3
-11 -15 -11 -27 0 -11 -15 -52 -34 -91 -58 -120 -109 -258 -122 -328 -2 -9 -9
-29 -15 -45 -6 -16 -14 -40 -16 -54 -5 -27 -5 -32 0 -157 1 -46 0 -83 -4 -83
-8 0 -3 -45 7 -61 4 -8 3 -9 -4 -5 -9 5 -9 0 -2 -20 9 -23 23 -79 35 -137 2
-10 6 -26 9 -35 4 -15 11 -61 20 -147 7 -60 127 -335 147 -335 5 0 9 -5 9 -10
0 -11 70 -109 102 -144 10 -11 18 -24 18 -28 0 -5 4 -7 9 -3 5 3 12 -3 15 -13
7 -19 148 -169 176 -187 61 -38 136 -90 138 -97 2 -5 21 -17 41 -28 21 -10 43
-26 51 -35 13 -15 68 -43 100 -50 8 -2 40 -12 70 -23 47 -17 71 -24 125 -38 6
-1 48 -12 94 -24 46 -12 93 -23 105 -25 12 -2 46 -8 76 -15 82 -17 281 -19
348 -4 59 14 118 24 162 29 14 1 45 6 70 11 25 5 50 9 55 10 26 3 73 17 105
32 19 9 37 17 40 17 18 5 51 22 87 47 23 15 46 28 51 28 8 0 93 59 127 88 6 5
16 11 22 13 15 6 158 133 215 192 81 83 205 287 263 432 25 63 84 243 90 275
3 16 12 56 21 90 25 100 22 352 -6 430 -5 14 -11 36 -13 50 -2 14 -6 32 -9 40
-7 19 -38 128 -43 155 -3 11 -14 38 -24 60 -11 22 -36 78 -55 125 -42 104 -84
179 -160 287 -56 81 -196 233 -214 233 -4 0 -17 10 -29 23 -30 34 -75 71 -103
84 -55 26 -150 63 -165 63 -8 0 -15 4 -15 10 0 25 -99 70 -210 95 -63 15 -129
31 -147 36 -58 18 -77 20 -168 25 -49 3 -110 7 -135 9 -72 8 -130 12 -133 9z"/>
</g>
</svg>
